<?xml version="1.0" standalone="no"?>
<!DOCTYPE svg PUBLIC "-//W3C//DTD SVG 20010904//EN"
 "http://www.w3.org/TR/2001/REC-SVG-20010904/DTD/svg10.dtd">
<svg version="1.0" xmlns="http://www.w3.org/2000/svg"
 width="600.000000px" height="600.000000px" viewBox="0 0 279.000000 197.000000"
 preserveAspectRatio="xMidYMid meet">

<g transform="translate(0.000000,197.000000) scale(0.100000,-0.100000)"
fill="#000000" stroke="none">
<path d="M920 1623 c-85 -148 -193 -335 -241 -418 -47 -82 -148 -258 -224
-390 -76 -132 -194 -336 -262 -453 -67 -117 -123 -217 -123 -222 0 -6 97 -10
249 -10 l249 0 83 143 c46 78 113 194 150 257 36 63 170 295 297 514 128 220
232 403 232 408 0 9 -236 418 -249 431 -4 4 -76 -113 -161 -260z m215 -78 c25
-44 45 -86 45 -93 0 -8 -131 -242 -291 -521 -160 -278 -312 -543 -338 -588
l-46 -82 -112 -1 -111 0 72 128 c40 70 140 244 223 387 82 143 227 396 323
562 96 167 177 300 182 295 4 -4 28 -43 53 -87z"/>
<path d="M1690 1674 c-69 -119 -134 -233 -145 -254 -12 -20 -39 -68 -62 -106
-23 -38 -135 -231 -249 -429 -114 -198 -258 -448 -320 -555 l-113 -195 251 -3
c139 -1 255 1 259 5 8 8 748 1291 756 1309 3 10 -217 405 -241 432 -9 9 -40
-37 -136 -204z m176 -112 c20 -37 43 -76 50 -87 12 -19 1 -42 -110 -235 -447
-777 -555 -963 -563 -971 -5 -5 -57 -8 -115 -7 l-106 3 142 246 c392 685 652
1127 658 1123 3 -2 23 -35 44 -72z"/>
<path d="M2072 1053 c-196 -335 -213 -368 -203 -388 5 -11 77 -135 159 -275
l149 -255 252 -3 c138 -1 251 1 251 5 0 5 -27 55 -61 113 -33 58 -73 128 -89
155 -131 232 -403 702 -409 708 -5 5 -27 -22 -49 -60z m227 -495 l170 -298
-112 0 -112 0 -115 203 c-63 111 -116 208 -118 215 -5 18 99 195 108 185 5 -4
85 -142 179 -305z"/>
</g>
</svg>
