<svg width="103" height="31" viewBox="0 0 103 31" fill="none" xmlns="http://www.w3.org/2000/svg">
<path d="M6.12 10.64V30H0.2V4.24C0.2 3.09333 0.48 2.2 1.04 1.56C1.6 0.893331 2.36 0.559998 3.32 0.559998C3.77333 0.559998 4.18667 0.653331 4.56 0.839999C4.96 0.999998 5.38667 1.29333 5.84 1.72L24.88 20V0.639999H30.84V26.68C30.84 27.88 30.5467 28.8 29.96 29.44C29.4 30.08 28.6533 30.4 27.72 30.4C26.8133 30.4 25.96 30 25.16 29.2L6.12 10.64ZM45.1991 17.68V12.76H60.6391V17.68H45.1991ZM35.3591 30V0.919998H61.7591V7.16H41.5591V23.76H61.7991V30H35.3591ZM94.0297 30L83.0297 18.84L72.1897 30H64.1097L79.3097 14.88L65.2297 0.919998H73.8297L83.6697 10.92L93.3897 0.919998H101.47L87.4297 14.88L102.75 30H94.0297Z" fill="#3C8200"/>
</svg>
